<?xml version="1.0" standalone="no"?>
<!DOCTYPE svg PUBLIC "-//W3C//DTD SVG 20010904//EN"
 "http://www.w3.org/TR/2001/REC-SVG-20010904/DTD/svg10.dtd">
<svg version="1.0" xmlns="http://www.w3.org/2000/svg"
 width="188.000000pt" height="231.000000pt" viewBox="0 0 188.000000 231.000000"
 preserveAspectRatio="xMidYMid meet">
<metadata>
Created by potrace 1.16, written by Peter Selinger 2001-2019
</metadata>
<g transform="translate(0.000000,231.000000) scale(0.100000,-0.100000)"
fill="#000000" stroke="none">
<path d="M345 2187 c-3 -7 -4 -241 -3 -520 l3 -508 -22 25 c-25 29 -48 33 -60
11 -5 -8 -41 -48 -81 -88 -100 -103 -100 -101 43 -255 l115 -123 0 -92 0 -92
-47 -50 c-25 -28 -77 -82 -115 -122 -56 -59 -68 -78 -68 -105 0 -19 7 -40 18
-49 9 -9 46 -48 82 -87 84 -93 96 -93 173 -7 l59 65 203 0 202 0 59 -65 c77
-85 91 -85 168 0 l58 65 327 2 326 3 3 867 2 868 -132 135 -132 135 -588 0
c-466 0 -590 -3 -593 -13z m1105 -232 l0 -105 100 0 100 0 0 -760 0 -760 -264
0 -264 0 -120 128 -121 127 296 3 c259 2 299 4 315 19 22 20 23 56 2 77 -13
14 -55 16 -300 16 -156 0 -284 3 -284 6 0 3 27 35 59 71 l60 64 230 -1 c219
-1 231 0 251 20 24 24 25 38 4 68 -15 21 -20 22 -195 22 -98 0 -179 4 -179 9
0 5 7 14 15 21 22 18 19 28 -22 74 l-38 41 205 5 204 5 15 26 c13 24 13 29 -2
53 l-17 26 -420 0 -420 0 -17 -26 c-15 -24 -15 -29 -2 -53 14 -25 18 -26 129
-31 l114 -5 -68 -72 c-65 -69 -71 -73 -112 -73 -36 0 -47 -5 -60 -25 -14 -21
-15 -30 -5 -52 6 -14 10 -27 8 -29 -2 -2 -45 41 -95 95 l-91 99 -1 504 c0 277
3 507 6 511 4 4 227 7 496 7 l488 0 0 -105z"/>
<path d="M643 1684 c-15 -24 -15 -29 -2 -53 l15 -26 419 -3 c418 -2 420 -2
438 19 22 28 22 44 -3 69 -19 19 -33 20 -435 20 l-415 0 -17 -26z"/>
<path d="M643 1424 c-15 -24 -15 -29 -2 -53 l15 -26 424 0 424 0 15 26 c13 24
13 29 -2 53 l-17 26 -420 0 -420 0 -17 -26z"/>
</g>
</svg>
