<?xml version="1.0" standalone="no"?>
<!DOCTYPE svg PUBLIC "-//W3C//DTD SVG 20010904//EN"
 "http://www.w3.org/TR/2001/REC-SVG-20010904/DTD/svg10.dtd">
<svg version="1.0" xmlns="http://www.w3.org/2000/svg"
 width="422.000000pt" height="364.000000pt" viewBox="0 0 422.000000 364.000000"
 preserveAspectRatio="xMidYMid meet">
<metadata>
Created by potrace 1.16, written by Peter Selinger 2001-2019
</metadata>
<g transform="translate(0.000000,364.000000) scale(0.100000,-0.100000)"
fill="#000000" stroke="none">
<path d="M2083 3446 c-25 -22 -38 -64 -153 -527 l-126 -504 -230 -5 c-294 -8
-311 -13 -432 -139 -45 -47 -94 -109 -108 -137 l-24 -50 2 -845 3 -845 25 -49
c47 -91 164 -163 300 -186 31 -5 559 -9 1195 -9 1233 0 1212 -1 1331 54 29 14
76 47 103 74 85 85 81 37 81 981 0 954 11 853 -115 994 -107 121 -165 149
-316 155 -60 3 -109 8 -109 11 0 4 32 128 70 275 39 148 70 273 70 280 -1 6
-71 85 -158 174 l-157 164 -595 79 c-327 43 -603 79 -612 79 -9 0 -29 -11 -45
-24z m651 -200 l470 -64 114 -115 114 -116 -71 -288 c-39 -158 -89 -360 -110
-448 l-39 -160 -646 -3 c-355 -1 -646 2 -646 6 0 5 38 159 85 343 47 184 117
460 156 614 39 154 73 283 76 288 6 10 -21 13 497 -57z m-1003 -1126 l-16 -69
-65 -3 c-63 -3 -102 9 -122 37 -14 18 -8 62 10 77 26 23 40 26 128 27 l81 1
-16 -70z m1089 -255 c241 -53 460 -175 588 -328 54 -64 117 -190 133 -265 27
-132 -8 -301 -88 -418 -134 -195 -353 -328 -646 -391 -117 -26 -418 -25 -537
0 -649 140 -941 671 -593 1079 137 161 380 288 634 332 111 20 403 15 509 -9z"/>
<path d="M2357 3194 c-9 -15 -36 -128 -32 -132 2 -2 183 -28 402 -58 269 -36
399 -50 404 -43 13 22 31 121 22 129 -4 4 -170 28 -368 55 -198 26 -374 49
-391 52 -17 3 -34 1 -37 -3z"/>
<path d="M2257 2903 c-9 -15 -36 -127 -32 -132 4 -4 749 -103 942 -126 l61 -7
16 55 c22 77 21 85 -16 92 -18 3 -226 30 -463 60 -236 30 -446 57 -466 61 -21
3 -39 2 -42 -3z"/>
<path d="M2156 2554 c-9 -36 -14 -69 -12 -73 3 -5 29 -11 58 -14 29 -3 250
-31 491 -62 241 -31 443 -55 450 -52 12 4 43 125 34 133 -2 2 -195 29 -428 59
-233 30 -454 59 -491 65 -37 5 -71 10 -76 10 -5 0 -17 -29 -26 -66z"/>
<path d="M2462 1647 c-21 -22 -22 -32 -22 -215 l0 -191 -329 -3 -329 -3 -26
-24 c-14 -14 -26 -34 -26 -46 0 -30 34 -63 72 -70 18 -3 203 -5 410 -3 l376 3
26 24 26 24 0 243 0 243 -26 20 c-39 31 -123 29 -152 -2z"/>
</g>
</svg>
