<?xml version="1.0" standalone="no"?>
<!DOCTYPE svg PUBLIC "-//W3C//DTD SVG 20010904//EN"
 "http://www.w3.org/TR/2001/REC-SVG-20010904/DTD/svg10.dtd">
<svg version="1.0" xmlns="http://www.w3.org/2000/svg"
 width="158.000000pt" height="158.000000pt" viewBox="0 0 158.000000 158.000000"
 preserveAspectRatio="xMidYMid meet">

<g transform="translate(0.000000,158.000000) scale(0.100000,-0.100000)"
fill="#000000" stroke="none">
<path d="M692 1569 c-91 -11 -166 -35 -256 -80 -88 -44 -219 -145 -209 -162 3
-5 2 -8 -3 -5 -5 3 -15 0 -22 -8 -7 -8 -11 -14 -9 -14 3 0 -10 -16 -28 -35
-37 -41 -116 -194 -119 -229 0 -13 -4 -22 -7 -20 -12 7 -33 -142 -33 -231 1
-173 53 -325 161 -470 67 -90 87 -110 103 -100 6 4 9 1 8 -6 -4 -18 86 -84
167 -123 102 -49 115 -53 285 -77 120 -17 339 28 427 88 18 13 37 23 40 23 9
0 108 76 141 108 16 15 51 57 78 92 156 203 199 468 116 728 -9 28 -20 52 -24
52 -4 0 -7 3 -6 8 4 16 -14 52 -24 46 -6 -4 -9 -1 -6 7 11 31 -144 224 -171
214 -8 -3 -12 -3 -9 1 10 10 -40 52 -112 94 -84 50 -193 86 -300 99 -93 12
-97 12 -188 0z m-137 -355 c9 -4 29 -33 46 -66 18 -36 34 -56 41 -52 7 4 8 3
4 -4 -4 -6 2 -30 14 -54 26 -55 26 -64 -10 -105 -37 -41 -37 -52 -4 -106 36
-57 87 -111 158 -163 66 -50 96 -55 123 -21 24 31 61 50 81 42 51 -19 202
-119 208 -137 5 -16 -9 -36 -72 -99 -42 -42 -88 -80 -102 -84 -32 -8 -124 12
-189 40 -159 71 -342 247 -433 416 -34 64 -65 187 -56 222 5 20 155 177 169
177 3 0 13 -3 22 -6z"/>
</g>
</svg>
