<?xml version="1.0" standalone="no"?>
<!DOCTYPE svg PUBLIC "-//W3C//DTD SVG 20010904//EN"
 "http://www.w3.org/TR/2001/REC-SVG-20010904/DTD/svg10.dtd">
<svg version="1.0" xmlns="http://www.w3.org/2000/svg"
 width="266.000000pt" height="225.000000pt" viewBox="0 0 266.000000 225.000000"
 preserveAspectRatio="xMidYMid meet">
<metadata>
Created by potrace 1.16, written by Peter Selinger 2001-2019
</metadata>
<g transform="translate(0.000000,225.000000) scale(0.100000,-0.100000)"
fill="#000000" stroke="none">
<path d="M482 2205 c-239 -120 -289 -433 -100 -625 115 -117 296 -149 442 -78
38 18 44 26 63 89 26 82 75 161 128 207 l38 34 -5 66 c-10 129 -99 255 -223
314 -54 25 -70 28 -166 28 -102 0 -109 -2 -177 -35z"/>
<path d="M1822 2219 c-65 -25 -159 -110 -194 -176 -14 -26 -32 -76 -38 -110
l-13 -63 71 -66 c78 -71 125 -152 147 -247 13 -60 30 -72 123 -88 164 -29 339
68 415 229 28 59 32 78 32 152 0 67 -5 98 -25 148 -33 83 -109 168 -186 207
-53 27 -69 30 -169 32 -91 2 -119 -1 -163 -18z"/>
<path d="M1223 1836 c-65 -21 -124 -60 -174 -113 -54 -58 -85 -120 -100 -198
-31 -167 58 -340 217 -420 55 -28 67 -30 169 -30 101 0 115 2 168 28 80 40
151 112 190 194 29 62 32 77 32 163 0 88 -3 101 -33 162 -41 85 -109 152 -192
191 -54 26 -79 32 -150 34 -53 2 -101 -2 -127 -11z"/>
<path d="M361 1434 c-133 -36 -252 -137 -317 -268 l-39 -80 -3 -273 -3 -273
28 -11 c85 -32 337 -83 514 -103 l46 -5 6 117 c10 194 64 319 187 436 61 57
178 126 215 126 23 0 18 24 -11 51 -55 51 -114 189 -114 265 l0 34 -227 -1
c-166 0 -243 -4 -282 -15z"/>
<path d="M1806 1438 c-3 -7 -7 -35 -10 -63 -8 -62 -62 -178 -104 -224 -18 -18
-32 -36 -32 -40 0 -4 20 -13 45 -20 55 -16 146 -74 201 -128 115 -113 174
-268 174 -461 l0 -84 78 7 c156 14 314 51 450 106 l32 13 0 227 c0 261 -6 307
-56 407 -61 121 -177 215 -313 256 -71 21 -459 24 -465 4z"/>
<path d="M1009 1026 c-160 -56 -281 -188 -324 -351 -11 -45 -15 -116 -15 -297
l0 -237 68 -20 c104 -31 227 -59 342 -77 147 -23 453 -24 577 -1 115 22 252
61 304 87 l39 20 0 238 c0 250 -6 296 -50 382 -61 121 -177 223 -298 260 -57
18 -93 20 -321 20 -242 0 -260 -2 -322 -24z"/>
</g>
</svg>
