<?xml version="1.0" standalone="no"?>
<!DOCTYPE svg PUBLIC "-//W3C//DTD SVG 20010904//EN"
 "http://www.w3.org/TR/2001/REC-SVG-20010904/DTD/svg10.dtd">
<svg version="1.0" xmlns="http://www.w3.org/2000/svg"
 width="144.000000pt" height="178.000000pt" viewBox="0 0 144.000000 178.000000"
 preserveAspectRatio="xMidYMid meet">

<g transform="translate(0.000000,178.000000) scale(0.100000,-0.100000)"
fill="#000000" stroke="none">
<path d="M666 1742 c-3 -5 -5 -41 -5 -82 0 -40 -3 -76 -8 -80 -4 -4 -43 -22
-85 -40 -42 -17 -96 -45 -119 -62 l-43 -31 -53 57 c-30 32 -57 56 -61 54 -13
-5 -78 -81 -91 -106 -14 -25 -12 -30 41 -93 21 -25 38 -50 38 -56 0 -6 -13
-39 -30 -74 -16 -35 -38 -100 -49 -143 -11 -43 -23 -82 -28 -87 -4 -4 -37 -9
-73 -11 l-65 -3 0 -90 0 -90 68 -5 c76 -6 83 -11 93 -80 4 -25 17 -72 30 -104
l24 -60 -38 -45 c-174 -208 -182 -222 -182 -300 0 -90 71 -181 142 -181 56 0
95 30 184 138 48 59 91 111 95 116 5 5 37 -4 76 -21 37 -17 82 -35 98 -40 30
-9 30 -11 33 -88 2 -44 8 -85 14 -92 15 -19 132 -17 148 1 6 9 11 40 10 73 -2
85 -1 93 13 98 89 31 136 52 178 81 28 19 57 34 63 34 7 0 32 -22 55 -50 23
-27 48 -50 56 -50 14 0 105 108 105 125 0 6 -20 33 -45 62 -47 54 -54 76 -32
108 20 30 55 124 67 180 17 78 32 95 85 95 l45 0 0 95 0 95 -50 0 c-58 0 -59
1 -86 109 -8 36 -29 94 -45 129 -16 36 -29 69 -29 74 0 5 21 36 46 68 44 57
45 59 31 87 -9 15 -34 46 -56 67 l-41 40 -53 -59 -53 -59 -35 27 c-30 23 -103
59 -191 95 -27 11 -28 15 -29 82 -1 38 -2 76 -3 83 -1 14 -151 23 -160 9z
m186 -373 c100 -33 167 -89 226 -185 130 -217 93 -521 -84 -684 -94 -87 -230
-120 -347 -86 -31 9 -57 21 -57 27 0 6 19 33 42 60 l41 49 69 0 c117 0 201 59
256 179 36 79 45 281 12 281 -5 0 -49 -47 -97 -105 -48 -58 -90 -105 -93 -104
-10 1 -145 174 -145 186 0 7 37 57 83 112 45 55 82 104 82 110 0 16 -45 31
-94 31 -104 0 -204 -70 -254 -178 -21 -47 -27 -75 -30 -158 l-4 -101 -48 -54
-47 -54 -12 55 c-20 94 -22 137 -11 222 40 293 277 477 512 397z m-647 -1069
c15 -6 32 -24 41 -45 44 -107 -81 -189 -134 -88 -31 58 -3 119 65 142 1 1 13
-3 28 -9z"/>
</g>
</svg>
