<?xml version="1.0" standalone="no"?>
<!DOCTYPE svg PUBLIC "-//W3C//DTD SVG 20010904//EN"
 "http://www.w3.org/TR/2001/REC-SVG-20010904/DTD/svg10.dtd">
<svg version="1.0" xmlns="http://www.w3.org/2000/svg"
 width="274.000000pt" height="329.000000pt" viewBox="0 0 274.000000 329.000000"
 preserveAspectRatio="xMidYMid meet">

<g transform="translate(0.000000,329.000000) scale(0.100000,-0.100000)"
fill="#000000" stroke="none">
<path d="M1230 3277 c-225 -52 -401 -198 -485 -405 -45 -110 -55 -195 -55
-458 0 -259 9 -338 54 -453 25 -62 89 -163 125 -195 14 -13 21 -31 21 -57 0
-35 -8 -45 -126 -156 l-125 -118 -112 -33 c-62 -18 -143 -42 -182 -54 -100
-30 -134 -49 -190 -109 -54 -58 -68 -84 -84 -166 -9 -45 -6 -75 24 -228 19
-97 38 -191 41 -208 18 -99 25 -137 34 -182 6 -27 20 -97 31 -155 11 -58 22
-109 23 -115 2 -5 6 -32 11 -60 10 -66 30 -104 61 -115 16 -6 433 -10 1080
-10 1156 0 1088 -4 1113 58 6 15 27 106 46 202 43 214 75 368 81 395 2 11 8
43 14 70 5 28 21 105 34 172 28 134 26 182 -13 266 -23 50 -91 122 -140 147
-20 9 -103 36 -186 60 -82 23 -166 47 -187 54 -24 8 -80 53 -162 132 -137 132
-148 152 -105 204 63 78 122 180 147 259 27 86 27 87 27 391 0 341 -3 365 -66
497 -81 170 -225 297 -401 354 -80 25 -269 34 -348 16z m283 -207 c73 -23 178
-90 215 -139 l25 -32 -54 -51 c-75 -71 -173 -116 -280 -128 -46 -5 -180 -10
-298 -10 l-213 0 7 37 c26 138 188 296 341 332 71 16 187 12 257 -9z m336
-640 c1 -273 -6 -330 -53 -425 -55 -110 -140 -187 -261 -236 -50 -20 -77 -24
-165 -24 -106 0 -129 5 -220 49 -61 29 -171 139 -204 203 -44 88 -56 161 -56
350 l0 171 313 4 c290 4 316 6 376 26 74 26 170 78 221 121 31 26 36 28 42 13
4 -9 7 -123 7 -252z m-615 -876 c81 -18 195 -17 281 1 38 8 71 15 72 15 4 0
-209 -315 -215 -317 -4 -2 -52 65 -107 148 -119 180 -122 184 -105 174 7 -5
41 -14 74 -21z m-132 -271 c68 -104 128 -194 132 -201 5 -9 -17 -37 -64 -83
-40 -38 -73 -69 -75 -67 -12 16 -265 399 -265 402 0 6 135 136 141 136 3 0 62
-84 131 -187z m742 118 l69 -70 -133 -201 -134 -201 -72 72 c-45 44 -70 77
-66 85 29 50 257 384 261 384 4 0 38 -31 75 -69z m-1015 -430 c94 -142 180
-266 189 -274 50 -45 104 -29 190 56 l62 61 0 -312 0 -312 -422 2 -422 3 -8
35 c-4 19 -9 49 -12 67 -3 18 -26 135 -51 260 -103 519 -97 480 -81 511 22 42
56 67 116 85 30 9 100 29 155 46 55 16 103 30 106 30 3 1 83 -116 178 -258z
m1389 223 c208 -59 233 -71 257 -129 14 -33 14 -34 -50 -340 -30 -146 -55
-264 -80 -390 -3 -16 -11 -56 -16 -87 l-11 -58 -424 0 -424 0 0 310 c0 171 4
310 8 310 4 0 37 -29 72 -65 72 -72 108 -87 156 -62 20 11 84 99 204 281 96
146 176 265 178 266 1 0 60 -16 130 -36z"/>
<path d="M1900 567 c-53 -27 -65 -98 -24 -146 l26 -31 144 0 c144 0 145 0 169
26 36 39 34 96 -4 135 l-29 29 -129 0 c-82 0 -137 -5 -153 -13z"/>
</g>
</svg>
