<?xml version="1.0" standalone="no"?>
<!DOCTYPE svg PUBLIC "-//W3C//DTD SVG 20010904//EN"
 "http://www.w3.org/TR/2001/REC-SVG-20010904/DTD/svg10.dtd">
<svg version="1.0" xmlns="http://www.w3.org/2000/svg"
 width="217.000000pt" height="228.000000pt" viewBox="0 0 217.000000 228.000000"
 preserveAspectRatio="xMidYMid meet">
<metadata>
Created by potrace 1.16, written by Peter Selinger 2001-2019
</metadata>
<g transform="translate(0.000000,228.000000) scale(0.100000,-0.100000)"
fill="#000000" stroke="none">
<path d="M337 2122 c-16 -17 -17 -94 -17 -900 0 -856 1 -883 20 -935 11 -29
35 -67 52 -84 70 -66 35 -63 709 -63 l613 0 33 22 c18 13 42 41 53 64 19 38
20 62 20 461 0 495 11 453 -123 453 l-87 0 0 488 c0 366 -3 491 -12 500 -9 9
-162 12 -628 12 -585 0 -618 -1 -633 -18z m1183 -982 l0 -900 -511 0 -511 0
-39 39 -39 39 0 861 0 861 550 0 550 0 0 -900z m200 -482 c0 -341 -2 -383 -17
-400 -19 -22 -52 -23 -79 -4 -18 14 -19 32 -22 400 l-3 386 61 0 60 0 0 -382z"/>
<path d="M948 1919 c-10 -5 -18 -19 -18 -30 0 -11 -13 -31 -29 -45 -84 -71
-55 -190 54 -226 32 -11 40 -18 40 -38 0 -36 -39 -40 -66 -6 -23 30 -41 33
-63 10 -26 -25 -19 -60 19 -98 19 -20 35 -40 35 -46 0 -5 9 -19 19 -29 26 -26
60 -17 68 19 3 15 16 34 30 41 14 7 31 26 39 41 17 33 18 105 0 136 -17 31
-65 62 -97 62 -36 0 -54 22 -39 49 15 28 44 26 64 -4 22 -33 62 -34 77 -1 13
28 -9 79 -41 96 -11 6 -20 19 -20 29 0 18 -29 51 -46 51 -5 0 -17 -5 -26 -11z"/>
<path d="M572 1204 c-24 -17 -29 -53 -10 -72 16 -16 220 -16 236 0 19 19 14
55 -10 72 -16 12 -47 16 -108 16 -61 0 -92 -4 -108 -16z"/>
<path d="M920 1200 c-24 -24 -24 -29 -4 -58 15 -22 19 -22 228 -22 194 0 214
2 229 18 22 24 21 38 -3 62 -19 19 -33 20 -225 20 -192 0 -206 -1 -225 -20z"/>
<path d="M566 1024 c-19 -18 -21 -55 -4 -72 17 -17 439 -17 456 0 19 19 14 55
-10 72 -33 24 -419 24 -442 0z"/>
<path d="M1140 1020 c-25 -25 -25 -42 -2 -63 15 -14 40 -17 120 -17 93 0 102
2 116 22 20 29 20 34 -4 58 -17 17 -33 20 -115 20 -82 0 -98 -3 -115 -20z"/>
<path d="M572 844 c-24 -17 -29 -53 -10 -72 16 -16 220 -16 236 0 19 19 14 55
-10 72 -16 12 -47 16 -108 16 -61 0 -92 -4 -108 -16z"/>
<path d="M934 850 c-30 -12 -37 -39 -19 -66 15 -24 16 -24 229 -24 194 0 214
2 229 18 22 24 21 38 -3 62 -19 19 -33 20 -217 19 -109 0 -207 -4 -219 -9z"/>
<path d="M578 673 c-22 -5 -35 -50 -21 -72 9 -14 41 -16 228 -19 231 -3 245 0
245 44 0 48 -28 54 -240 53 -107 -1 -203 -3 -212 -6z"/>
<path d="M1140 660 c-25 -25 -25 -42 -2 -63 28 -26 212 -24 235 1 22 24 21 38
-3 62 -17 17 -33 20 -115 20 -82 0 -98 -3 -115 -20z"/>
<path d="M566 484 c-19 -18 -21 -55 -4 -72 15 -15 201 -16 229 -2 23 13 25 53
3 74 -12 12 -38 16 -114 16 -76 0 -102 -4 -114 -16z"/>
<path d="M920 480 c-24 -24 -24 -29 -4 -58 15 -22 19 -22 228 -22 194 0 214 2
229 18 22 24 21 38 -3 62 -19 19 -33 20 -225 20 -192 0 -206 -1 -225 -20z"/>
</g>
</svg>
