<?xml version="1.0" standalone="no"?>
<!DOCTYPE svg PUBLIC "-//W3C//DTD SVG 20010904//EN"
 "http://www.w3.org/TR/2001/REC-SVG-20010904/DTD/svg10.dtd">
<svg version="1.0" xmlns="http://www.w3.org/2000/svg"
 width="247.000000pt" height="266.000000pt" viewBox="0 0 247.000000 266.000000"
 preserveAspectRatio="xMidYMid meet">
<metadata>
Created by potrace 1.16, written by Peter Selinger 2001-2019
</metadata>
<g transform="translate(0.000000,266.000000) scale(0.100000,-0.100000)"
fill="#000000" stroke="none">
<path d="M845 2620 c4 -7 -3 -9 -22 -5 l-28 7 25 -21 c24 -20 36 -21 422 -21
256 0 399 4 403 10 3 6 0 17 -9 25 -12 13 -72 15 -406 15 -268 0 -389 -3 -385
-10z"/>
<path d="M722 2464 c-10 -10 -12 -174 -12 -770 0 -753 1 -757 20 -739 20 18
20 34 20 766 0 411 -3 750 -7 752 -5 3 -14 -1 -21 -9z"/>
<path d="M1728 2223 c-2 -142 -1 -485 2 -763 4 -440 7 -505 20 -505 13 0 15
92 17 760 2 495 -1 755 -7 745 -8 -13 -10 -12 -10 3 0 9 -4 17 -10 17 -6 0
-10 -100 -12 -257z"/>
<path d="M251 2089 c-12 -11 -26 -32 -32 -46 -5 -14 -9 -326 -9 -760 0 -801
-1 -786 56 -812 18 -8 287 -11 978 -11 949 0 953 0 980 21 14 11 26 29 26 39
0 10 5 22 10 25 7 4 10 261 10 739 0 636 -2 737 -15 763 -17 35 -45 62 -45 44
0 -12 -63 -3 -68 11 -2 4 -68 8 -147 8 -164 0 -168 -2 -163 -77 l3 -48 168 -3
167 -2 0 -700 0 -700 -930 0 -930 0 0 700 0 700 173 2 172 3 3 48 c5 77 5 77
-202 77 -171 0 -184 -1 -205 -21z"/>
<path d="M1012 1601 c-8 -4 -13 -11 -13 -15 0 -3 -2 -13 -5 -21 -10 -25 5 -79
26 -98 18 -15 46 -17 220 -17 124 0 201 4 205 10 4 6 11 8 16 5 5 -4 9 -2 9 4
0 5 3 18 7 28 5 15 2 15 -19 -4 -23 -22 -31 -23 -226 -23 l-202 0 -16 25 c-19
30 -11 81 16 95 11 6 104 10 213 10 211 0 211 0 237 -60 10 -24 10 -24 4 5
-12 64 -15 65 -248 65 -116 0 -217 -4 -224 -9z"/>
<path d="M1023 1394 c-39 -41 -42 -91 -8 -128 l25 -27 202 6 c166 5 206 9 220
22 10 9 18 21 18 27 0 6 -7 0 -16 -12 -15 -22 -19 -22 -224 -22 l-210 0 -16
25 c-21 33 -11 83 20 91 12 3 115 4 229 2 114 -2 207 0 207 5 0 4 -7 7 -15 7
-8 0 -15 3 -15 8 0 12 -406 9 -417 -4z"/>
<path d="M1035 1180 c-4 -6 71 -11 207 -12 l212 -3 16 -27 c13 -25 13 -31 0
-55 l-16 -28 -213 -3 c-163 -2 -211 -5 -208 -15 2 -6 10 -11 18 -9 14 4 358 5
374 2 25 -5 37 3 51 35 19 47 18 59 -12 94 l-26 31 -198 0 c-119 0 -201 -4
-205 -10z"/>
<path d="M40 411 c-12 -24 -13 -141 -1 -174 5 -13 25 -40 44 -60 l34 -37 1119
0 c1253 0 1134 -7 1188 74 22 32 26 50 26 106 0 120 42 111 -498 108 l-463 -3
-13 -25 c-8 -14 -19 -37 -27 -52 l-12 -28 -198 0 -197 0 -16 25 c-9 13 -16 31
-16 39 0 8 -7 22 -16 30 -14 14 -71 16 -479 16 -449 0 -465 -1 -475 -19z"/>
</g>
</svg>
