<?xml version="1.0" standalone="no"?>
<!DOCTYPE svg PUBLIC "-//W3C//DTD SVG 20010904//EN"
 "http://www.w3.org/TR/2001/REC-SVG-20010904/DTD/svg10.dtd">
<svg version="1.0" xmlns="http://www.w3.org/2000/svg"
 width="312.000000pt" height="361.000000pt" viewBox="0 0 312.000000 361.000000"
 preserveAspectRatio="xMidYMid meet">
<metadata>
Created by potrace 1.16, written by Peter Selinger 2001-2019
</metadata>
<g transform="translate(0.000000,361.000000) scale(0.100000,-0.100000)"
fill="#000000" stroke="none">
<path d="M680 3501 c-53 -17 -110 -52 -133 -83 -59 -81 -57 -53 -57 -697 l0
-591 120 0 120 0 0 564 0 565 28 3 c15 2 397 2 850 0 l822 -2 0 -730 0 -730
120 0 120 0 0 761 0 761 -27 49 c-27 50 -60 81 -123 115 -34 18 -72 19 -925
21 -490 1 -901 -2 -915 -6z"/>
<path d="M1173 3158 c-42 -20 -66 -148 -37 -195 64 -103 124 -110 180 -22 23
36 25 47 19 107 -3 36 -11 72 -17 79 -31 38 -100 53 -145 31z"/>
<path d="M1223 2843 c-8 -3 -10 -15 -7 -33 4 -15 2 -36 -3 -45 -8 -14 -13 -9
-31 29 -12 25 -26 46 -30 46 -22 0 -119 -33 -131 -45 -21 -20 1 -84 37 -110
23 -17 46 -20 158 -23 145 -4 190 7 219 51 9 15 15 40 13 58 -3 31 -7 33 -68
51 -36 10 -68 18 -71 18 -3 0 -14 -18 -24 -40 -26 -58 -41 -51 -36 17 2 23 -7
33 -26 26z"/>
<path d="M1225 2527 c-7 -4 -12 -15 -10 -25 2 -9 4 -20 4 -24 1 -5 210 -8 466
-8 l465 0 0 30 c0 17 -3 30 -7 30 -617 4 -907 3 -918 -3z"/>
<path d="M1220 2280 l0 -30 465 0 465 0 0 30 0 30 -465 0 -465 0 0 -30z"/>
<path d="M217 1986 c-85 -23 -147 -103 -147 -189 0 -48 304 -1547 319 -1575
18 -32 86 -89 120 -101 25 -8 346 -11 1155 -11 1072 0 1123 1 1162 19 23 10
51 29 63 42 44 47 49 63 75 264 68 526 126 1002 126 1034 0 71 -43 137 -113
172 -36 19 -61 20 -523 19 l-484 0 -9 22 c-4 13 -11 52 -15 87 -4 35 -14 81
-23 103 -21 54 -84 104 -145 117 -76 17 -1499 14 -1561 -3z m1709 -928 c39
-38 46 -121 13 -162 -41 -53 -64 -56 -359 -56 -294 0 -318 4 -358 55 -16 20
-22 42 -22 77 0 44 4 54 34 84 l35 35 315 -3 316 -3 26 -27z"/>
</g>
</svg>
