<?xml version="1.0" standalone="no"?>
<!DOCTYPE svg PUBLIC "-//W3C//DTD SVG 20010904//EN"
 "http://www.w3.org/TR/2001/REC-SVG-20010904/DTD/svg10.dtd">
<svg version="1.0" xmlns="http://www.w3.org/2000/svg"
 width="272.000000pt" height="271.000000pt" viewBox="0 0 272.000000 271.000000"
 preserveAspectRatio="xMidYMid meet">

<g transform="translate(0.000000,271.000000) scale(0.100000,-0.100000)"
fill="#000000" stroke="none">
<path d="M615 2681 c-68 -31 -127 -90 -159 -160 -20 -43 -21 -65 -24 -337 l-4
-292 -87 -4 c-145 -7 -231 -62 -290 -188 l-26 -55 -3 -340 c-4 -364 1 -417 44
-492 32 -56 105 -118 161 -137 27 -9 80 -16 124 -16 l77 0 5 -187 c2 -104 10
-205 16 -225 28 -89 129 -178 224 -198 37 -7 260 -10 713 -8 l659 3 56 26 c66
31 116 80 149 146 23 45 25 61 30 243 l5 195 95 5 c114 7 175 34 238 105 71
80 72 90 72 514 0 374 0 376 -24 427 -55 118 -143 174 -290 183 l-91 6 -5 295
c-5 283 -6 297 -28 342 -31 63 -92 122 -157 153 l-54 25 -683 0 -683 -1 -60
-28z m1405 -191 c49 -26 49 -28 50 -322 l0 -278 -715 0 -715 0 0 268 c0 248 1
269 20 299 20 33 36 40 100 45 19 2 305 3 635 2 486 0 605 -3 625 -14z m278
-824 c97 -50 115 -168 38 -244 -30 -31 -43 -36 -93 -40 -49 -3 -64 0 -93 20
-49 33 -72 81 -67 141 2 27 13 61 24 75 40 56 132 79 191 48z m-228 -927 l0
-431 -29 -29 -29 -29 -646 0 c-442 0 -653 3 -669 11 -57 26 -57 30 -57 488 l0
421 715 0 715 0 0 -431z"/>
<path d="M842 863 l3 -98 515 0 515 0 3 98 3 97 -521 0 -521 0 3 -97z"/>
<path d="M844 647 c-3 -8 -4 -54 -2 -103 l3 -89 360 0 360 0 0 100 0 100 -358
3 c-292 2 -358 0 -363 -11z"/>
</g>
</svg>
