<?xml version="1.0" standalone="no"?>
<!DOCTYPE svg PUBLIC "-//W3C//DTD SVG 20010904//EN"
 "http://www.w3.org/TR/2001/REC-SVG-20010904/DTD/svg10.dtd">
<svg version="1.0" xmlns="http://www.w3.org/2000/svg"
 width="488.000000pt" height="490.000000pt" viewBox="0 0 488.000000 490.000000"
 preserveAspectRatio="xMidYMid meet">

<g transform="translate(0.000000,490.000000) scale(0.100000,-0.100000)"
fill="#000000" stroke="none">
<path d="M1700 4664 c-121 -26 -284 -116 -370 -204 -289 -295 -319 -756 -70
-1071 22 -28 40 -54 40 -58 0 -14 135 -115 208 -157 111 -64 211 -88 357 -88
269 1 480 115 636 345 87 128 128 256 136 419 10 213 -53 384 -218 594 -31 40
-151 125 -229 164 -139 68 -331 90 -490 56z"/>
<path d="M3048 3363 c-18 -20 -97 -102 -175 -182 -79 -80 -143 -148 -143 -151
0 -10 95 -100 107 -100 12 0 353 354 353 367 0 10 -92 103 -103 103 -3 0 -21
-17 -39 -37z"/>
<path d="M3046 3079 c-31 -33 -56 -64 -56 -69 0 -5 30 -41 67 -80 l66 -71 64
63 c35 34 63 67 63 73 0 11 -131 145 -142 145 -3 0 -31 -27 -62 -61z"/>
<path d="M3352 2999 c-26 -28 -100 -106 -165 -172 l-119 -121 116 -115 c64
-63 116 -115 116 -116 0 -1 71 -73 158 -161 87 -87 230 -234 319 -326 89 -93
166 -168 172 -168 12 0 315 316 319 333 1 7 -66 82 -150 166 -195 195 -189
189 -472 483 -132 136 -241 248 -244 248 -2 0 -24 -23 -50 -51z"/>
<path d="M983 2930 c-201 -52 -326 -123 -467 -264 -129 -129 -217 -284 -269
-471 -21 -80 -22 -85 -24 -1093 -1 -557 1 -1020 4 -1028 4 -12 130 -14 889
-14 486 0 884 3 884 6 0 3 -24 28 -54 55 -30 27 -64 70 -76 96 -18 39 -143
379 -203 553 -9 25 -30 83 -47 130 -17 47 -35 103 -39 125 -5 22 -27 90 -49
150 -211 585 -205 560 -159 589 25 16 50 -17 80 -104 14 -41 39 -113 57 -160
17 -47 40 -114 51 -150 32 -110 81 -249 253 -731 31 -87 56 -164 56 -173 0
-27 60 -167 90 -211 38 -55 114 -111 185 -136 52 -18 88 -19 744 -19 795 0
753 -5 848 92 61 63 77 94 94 177 12 58 12 67 -9 128 -31 88 -65 136 -121 172
-98 64 -72 61 -639 61 -399 0 -522 3 -535 13 -17 12 -87 249 -87 294 0 12 -20
94 -44 180 -24 87 -68 246 -96 353 -28 107 -72 269 -97 360 -25 91 -49 188
-53 217 -25 169 -101 327 -229 478 -76 89 -100 112 -166 159 -124 89 -232 136
-398 175 -76 18 -290 12 -374 -9z"/>
<path d="M3093 2473 c-26 -44 -28 -56 -28 -148 0 -91 3 -105 30 -158 37 -75
115 -147 190 -175 93 -36 222 -27 288 20 34 24 34 30 -2 70 l-29 33 -49 -18
c-70 -25 -170 -19 -193 11 -3 4 -18 16 -33 25 -16 10 -41 39 -58 65 -26 41
-29 55 -29 123 0 43 5 90 12 104 10 23 8 29 -22 60 -19 19 -37 35 -41 35 -4 0
-20 -21 -36 -47z"/>
<path d="M3267 2374 c-18 -19 -6 -92 23 -137 32 -50 60 -67 115 -67 73 0 72 7
-27 109 -102 105 -101 105 -111 95z"/>
<path d="M2960 2073 c-56 -78 -145 -261 -170 -353 -75 -268 -50 -568 70 -817
l49 -103 191 0 c186 0 190 1 180 19 -5 11 -15 23 -20 26 -42 26 -133 187 -168
295 -77 238 -43 509 88 705 21 33 40 65 40 70 0 6 -16 19 -36 30 -41 22 -149
134 -159 164 -10 32 -20 26 -65 -36z"/>
<path d="M4151 1931 c-44 -49 -81 -93 -81 -98 1 -4 30 -39 66 -78 l64 -69 95
94 95 95 -72 72 c-40 40 -75 73 -79 73 -3 0 -43 -40 -88 -89z"/>
<path d="M3753 1414 c-9 -4 -13 -30 -13 -80 l0 -74 465 0 466 0 -3 78 -3 77
-450 2 c-247 1 -456 -1 -462 -3z"/>
<path d="M4092 958 l3 -253 110 0 110 0 3 253 2 252 -115 0 -115 0 2 -252z"/>
<path d="M3860 620 c0 -5 4 -19 10 -32 5 -13 17 -51 27 -85 l17 -63 288 0 288
0 0 95 0 95 -315 0 c-193 0 -315 -4 -315 -10z"/>
<path d="M3924 342 c-6 -4 -19 -34 -29 -67 -23 -80 -33 -99 -72 -145 -18 -21
-33 -41 -33 -44 0 -3 191 -6 425 -6 l425 0 0 135 0 135 -352 0 c-194 0 -358
-4 -364 -8z"/>
</g>
</svg>
