<?xml version="1.0" standalone="no"?>
<!DOCTYPE svg PUBLIC "-//W3C//DTD SVG 20010904//EN"
 "http://www.w3.org/TR/2001/REC-SVG-20010904/DTD/svg10.dtd">
<svg version="1.0" xmlns="http://www.w3.org/2000/svg"
 width="259.000000pt" height="379.000000pt" viewBox="0 0 259.000000 379.000000"
 preserveAspectRatio="xMidYMid meet">
<metadata>
Created by potrace 1.16, written by Peter Selinger 2001-2019
</metadata>
<g transform="translate(0.000000,379.000000) scale(0.100000,-0.100000)"
fill="#000000" stroke="none">
<path d="M1115 3655 c17 -9 22 -13 13 -11 -54 15 -90 16 -147 2 -76 -18 -82
-22 -48 -35 32 -12 27 -36 -9 -45 -15 -4 -22 -11 -18 -18 5 -7 0 -9 -15 -5
-23 6 -101 -20 -101 -34 0 -5 8 -6 18 -3 14 5 14 4 2 -4 -10 -8 -19 -7 -29 1
-12 10 -13 9 -7 -2 6 -9 5 -12 -5 -9 -22 8 -149 -61 -143 -77 3 -8 13 -11 22
-8 14 4 14 3 3 -5 -15 -11 -41 -5 -41 9 0 5 -17 -3 -37 -17 -20 -13 -43 -22
-51 -19 -8 3 -20 1 -27 -5 -9 -8 -15 -8 -20 0 -5 8 -11 8 -21 -1 -8 -6 -14 -8
-14 -4 0 10 32 34 45 35 6 0 3 -5 -5 -10 -8 -5 -10 -10 -5 -10 6 0 16 4 23 9
10 6 10 10 -3 21 -14 11 -21 8 -51 -21 -19 -18 -32 -39 -30 -45 3 -7 -2 -15
-11 -18 -11 -5 -14 -2 -9 10 4 11 -2 8 -18 -7 -14 -13 -21 -26 -15 -27 13 -5
1 -22 -14 -18 -7 1 -9 1 -4 -1 4 -3 5 -9 1 -14 -3 -5 0 -9 5 -9 6 0 11 -4 11
-9 0 -6 -9 -9 -20 -8 -14 1 -19 6 -15 17 4 10 0 8 -13 -5 -11 -11 -18 -22 -16
-24 2 -2 -4 -10 -14 -18 -9 -8 -11 -11 -3 -7 10 5 11 1 6 -15 -7 -24 -2 -26
26 -10 11 5 17 14 14 19 -3 6 -1 18 5 27 9 15 10 14 5 -7 -6 -24 -6 -24 10 -5
29 38 114 122 139 138 31 21 42 22 26 2 -7 -8 -9 -15 -4 -15 5 0 -2 -6 -16
-13 -14 -7 -25 -17 -25 -22 0 -19 -16 -35 -27 -29 -7 5 -8 2 -3 -6 6 -10 4
-12 -8 -7 -12 4 -14 2 -10 -10 4 -10 2 -14 -4 -10 -13 8 -86 -70 -78 -82 3 -5
-2 -12 -11 -15 -9 -3 -14 -12 -11 -19 3 -7 -1 -24 -9 -38 -7 -13 -13 -31 -13
-39 0 -8 4 -5 9 8 5 12 14 22 19 22 5 0 -1 -19 -14 -42 -13 -23 -21 -47 -17
-52 3 -6 -6 -3 -21 7 -21 13 -25 14 -21 2 3 -8 -1 -22 -10 -30 -16 -16 -20
-33 -17 -67 1 -10 -2 -18 -6 -18 -12 0 -33 -143 -33 -228 0 -53 3 -71 12 -66
7 4 8 3 4 -5 -4 -6 -2 -45 5 -87 10 -57 15 -70 21 -54 4 12 5 33 2 46 -3 13
-3 36 1 52 7 25 8 25 15 7 13 -32 11 -70 -5 -101 -18 -35 -21 -68 -4 -44 9 13
10 13 6 0 -2 -8 0 -23 5 -33 8 -16 6 -18 -14 -15 -19 2 -23 10 -25 38 -1 19
-8 64 -16 100 -12 57 -14 61 -20 35 -3 -17 -1 -31 3 -33 11 -4 0 -65 -13 -73
-6 -4 -5 -14 1 -25 10 -17 12 -15 18 16 6 29 9 31 15 15 11 -27 11 -37 0 -31
-5 3 -11 -7 -14 -22 -4 -19 5 -47 34 -101 45 -84 126 -191 144 -191 7 0 16
-11 19 -25 7 -27 50 -45 68 -27 8 8 16 5 28 -10 12 -15 23 -19 36 -14 19 7 19
8 0 21 -10 8 -23 12 -27 9 -5 -3 -6 2 -2 11 3 10 8 13 12 6 4 -6 12 -7 21 -1
23 15 34 12 19 -6 -11 -14 -10 -16 6 -13 20 3 114 -49 115 -63 0 -5 -7 -8 -16
-8 -9 0 -12 -5 -8 -11 5 -9 -1 -10 -22 -5 -23 5 -26 4 -11 -4 9 -6 26 -8 37
-5 25 8 62 -3 54 -16 -7 -12 -65 -9 -82 4 -23 18 -24 -1 -2 -23 18 -18 24 -20
32 -9 8 11 9 11 5 -2 -3 -9 0 -23 6 -30 14 -15 -10 1 -56 38 -29 23 -47 29
-47 16 0 -7 88 -62 115 -72 5 -2 34 -14 63 -27 29 -13 56 -24 61 -24 4 0 22
-7 40 -16 18 -9 76 -27 129 -41 84 -22 123 -26 282 -28 l185 -3 27 -67 28 -67
-25 -30 c-29 -35 -31 -55 -9 -106 10 -20 18 -44 20 -53 2 -8 23 -65 47 -125
24 -60 59 -150 77 -201 19 -50 37 -90 41 -87 4 2 7 -2 6 -9 -1 -34 4 -48 15
-41 6 4 8 3 5 -3 -6 -9 21 -100 42 -141 14 -27 27 -62 51 -132 13 -36 29 -78
36 -95 7 -16 43 -109 79 -205 61 -162 78 -195 96 -184 4 2 6 -4 5 -14 0 -9 4
-16 11 -15 7 2 10 -3 7 -10 -2 -7 20 -26 56 -45 54 -30 66 -33 139 -31 121 3
205 53 246 148 34 76 35 72 -185 646 -121 313 -212 552 -252 660 -40 108 -77
163 -113 166 -8 1 -20 2 -26 3 -6 0 -21 27 -34 59 -41 99 -42 92 17 120 117
56 319 221 303 248 -5 7 -4 10 2 6 12 -7 34 17 86 90 57 81 124 233 110 247
-4 3 -2 6 4 6 16 0 36 115 39 230 4 182 -45 346 -154 516 -65 99 -197 233
-214 216 -7 -7 -16 -12 -22 -12 -5 0 -1 6 9 14 17 12 14 16 -44 55 -84 57
-190 113 -202 106 -5 -4 -9 -2 -9 3 0 8 -118 49 -130 45 -3 -1 -14 -5 -24 -9
-16 -6 -18 -4 -13 10 6 15 3 18 -18 14 -14 -3 -25 -1 -25 4 0 6 -8 7 -17 3
-47 -18 -73 -13 -30 6 21 9 20 9 -5 4 -14 -3 -32 -6 -40 -8 -7 -2 -10 -2 -5 0
22 13 0 21 -50 18 -47 -3 -51 -2 -23 4 35 8 35 8 -12 10 -37 1 -48 -3 -48 -14
0 -12 -13 -15 -56 -15 -39 0 -53 -3 -48 -12 4 -7 3 -8 -5 -4 -9 6 -9 11 0 22
15 18 4 31 -14 16 -8 -7 -17 -9 -21 -5 -4 4 -19 8 -34 10 l-27 3 30 -15z m328
-186 c56 -12 109 -22 117 -22 8 0 20 -6 27 -12 9 -10 3 -14 -29 -19 -100 -16
-214 -101 -258 -191 -33 -70 -33 -170 0 -239 29 -60 88 -119 150 -151 l45 -23
-45 -12 c-103 -27 -250 -110 -309 -174 -26 -29 -34 -31 -82 -15 -19 6 -41 13
-49 15 -9 3 2 14 30 30 59 33 84 58 118 113 24 41 27 56 27 132 0 78 -3 90
-30 134 -33 54 -112 116 -149 119 -13 0 -22 5 -18 10 3 5 -2 7 -11 3 -9 -3
-19 -1 -23 4 -4 6 -21 8 -43 5 -26 -5 -32 -4 -21 3 8 6 10 11 5 11 -6 0 -16
-5 -23 -12 -9 -9 -12 -9 -12 -1 0 13 -59 8 -95 -7 -11 -5 -32 -11 -47 -14 -71
-16 -186 -160 -174 -219 4 -17 2 -26 -4 -22 -6 3 -10 1 -10 -4 0 -6 8 -11 18
-12 10 0 12 -3 5 -6 -21 -8 -15 -62 14 -115 23 -43 109 -126 134 -129 19 -3
25 -5 47 -18 35 -19 122 -25 182 -12 29 6 54 10 56 8 2 -1 -8 -39 -22 -82 -22
-74 -23 -86 -13 -158 l10 -79 -35 -51 c-20 -29 -36 -56 -36 -60 0 -4 111 -7
246 -7 208 0 248 2 261 15 8 9 18 13 21 10 4 -3 0 -10 -8 -15 -11 -7 -8 -9 13
-8 31 3 33 14 12 73 -8 22 -15 46 -15 53 0 9 71 12 320 12 176 0 320 -3 320
-7 0 -19 -105 -145 -162 -195 -343 -301 -854 -329 -1237 -69 -60 41 -141 112
-141 124 0 4 72 7 160 7 88 0 160 2 160 5 0 3 -16 30 -36 60 -39 58 -38 55
-18 178 5 31 -25 139 -37 132 -4 -3 -5 4 -2 15 3 11 0 20 -6 20 -6 0 -10 4 -8
9 2 9 -2 11 -29 11 -8 0 -12 -5 -9 -10 4 -7 -2 -9 -19 -4 -19 4 -28 2 -32 -10
-4 -11 -13 -15 -25 -11 -13 5 -19 2 -17 -7 2 -8 -5 -12 -17 -11 -11 2 -27 -2
-35 -7 -13 -9 -13 -12 3 -24 13 -10 15 -15 5 -18 -7 -3 -18 2 -24 10 -10 13
-16 12 -45 -8 -19 -13 -53 -41 -76 -63 -24 -23 -45 -38 -48 -36 -3 3 -14 41
-26 85 -28 107 -27 262 2 365 12 41 22 84 23 96 0 11 3 20 7 18 3 -2 14 13 24
33 119 232 385 411 684 462 94 16 259 11 364 -11z m602 -387 c-2 -2 10 -26 26
-54 43 -73 80 -208 86 -314 7 -121 -2 -127 -75 -51 -9 9 -22 17 -29 17 -7 0
-13 5 -13 11 0 6 -7 9 -15 5 -8 -3 -14 0 -12 5 3 13 -80 60 -147 82 -34 12
-54 14 -67 7 -15 -9 -18 -8 -12 7 5 15 4 16 -8 5 -8 -7 -14 -16 -15 -20 0 -4
-3 -14 -7 -22 -39 -100 -49 -180 -30 -230 4 -8 5 -21 4 -28 -1 -7 4 -11 11
-10 13 3 14 -12 8 -82 -2 -21 -3 -22 -7 -5 -3 11 -9 24 -13 29 -5 5 -2 15 6
23 8 8 14 19 14 25 0 20 -24 -9 -60 -71 -32 -56 -37 -61 -65 -58 -17 3 -29 9
-27 16 1 7 -11 33 -28 58 -30 44 -31 48 -24 122 5 66 3 88 -21 164 -15 49 -25
90 -23 92 2 2 24 -1 48 -6 52 -12 147 -7 208 11 32 10 42 18 42 34 0 15 3 17
9 8 11 -17 73 17 66 36 -3 8 0 12 7 10 19 -7 52 28 42 44 -4 7 -4 10 1 6 12
-11 35 11 35 33 0 11 -7 19 -15 19 -8 0 -15 5 -15 10 0 7 6 7 19 0 26 -13 32
-3 38 72 l6 60 27 -29 c15 -15 26 -30 25 -31z m-491 -1827 c25 -66 51 -128 56
-137 6 -10 10 -23 10 -30 0 -7 6 -24 13 -38 7 -14 25 -60 41 -102 17 -47 32
-75 39 -71 6 3 7 1 3 -5 -8 -13 78 -248 100 -273 8 -9 12 -18 9 -21 -7 -6 127
-356 152 -399 10 -16 23 -27 30 -25 8 3 10 -1 6 -11 -5 -13 -2 -15 11 -10 10
4 15 3 11 -3 -6 -10 28 -32 39 -25 3 3 3 2 0 -3 -3 -4 11 -13 33 -20 l38 -12
-35 6 c-19 4 -46 7 -59 6 -13 0 -19 3 -13 7 7 4 1 13 -16 25 -60 40 -79 81
-223 466 -38 102 -76 201 -83 220 -8 19 -31 79 -52 132 -20 54 -40 96 -43 94
-3 -2 -6 8 -7 23 0 14 -8 42 -16 61 -29 65 -98 250 -98 262 0 20 6 6 54 -117z"/>
<path d="M806 2452 l-19 -138 36 -57 c20 -31 39 -57 42 -57 3 0 21 24 40 53
39 58 39 55 11 252 l-11 80 -40 3 -41 3 -18 -139z"/>
<path d="M1575 2628 l-18 -142 26 -45 c15 -25 31 -45 37 -43 5 1 9 -1 8 -5 -2
-5 0 -9 5 -10 4 -2 7 0 6 3 0 4 3 10 8 13 15 10 63 85 63 98 0 7 -4 13 -10 13
-5 0 -7 -8 -4 -17 5 -14 4 -15 -4 -4 -7 10 -7 20 1 32 8 12 7 44 -2 116 -17
135 -16 133 -60 133 l-37 0 -19 -142z"/>
<path d="M870 3611 c0 -5 12 -11 28 -13 l27 -3 -28 -6 c-18 -4 -33 -1 -43 8
-9 9 -21 12 -32 7 -9 -4 -19 -8 -22 -8 -21 -5 -100 -40 -100 -44 0 -3 8 -11
18 -19 15 -13 14 -13 -8 0 -22 13 -29 12 -58 -3 -28 -15 -30 -19 -17 -30 8 -7
15 -17 15 -23 0 -6 -3 -8 -6 -4 -4 3 -20 -1 -36 -9 -16 -8 -39 -13 -51 -11
-18 4 -18 4 5 6 15 0 30 6 34 12 11 18 -48 1 -66 -18 -8 -9 -9 -13 -2 -9 6 4
12 2 12 -3 0 -17 58 -6 81 15 12 10 23 18 25 17 11 -8 24 -1 24 12 0 8 -5 15
-11 15 -8 0 -8 5 1 15 7 8 17 15 22 15 7 0 6 -5 -1 -13 -12 -15 -5 -27 15 -27
8 0 11 6 8 15 -4 8 -2 15 4 15 6 0 13 -6 15 -12 4 -10 6 -10 6 0 1 7 6 10 13
6 7 -5 8 -3 3 6 -6 10 -4 12 10 7 9 -4 24 -2 31 4 8 6 14 9 14 5 0 -4 19 4 43
16 23 12 47 23 52 24 6 0 21 5 34 9 23 8 23 8 -9 21 -38 16 -50 17 -50 5z"/>
<path d="M231 3137 c-17 -30 -31 -60 -31 -66 0 -12 -2 -15 -40 -89 -12 -24
-19 -49 -17 -56 3 -8 3 -17 -1 -21 -3 -3 -5 -22 -3 -42 2 -23 -1 -33 -8 -29
-6 4 -11 3 -11 -3 0 -5 4 -12 8 -15 5 -3 10 -37 10 -76 1 -39 4 -75 7 -81 3
-5 2 -16 -3 -25 -10 -17 6 -74 20 -74 12 0 10 68 -2 91 -7 13 -7 19 0 19 5 0
10 16 10 36 0 25 -3 33 -12 28 -9 -5 -9 -2 1 9 11 14 11 23 1 47 -10 24 -10
32 3 45 23 23 30 54 16 71 -6 8 -9 17 -5 21 3 3 6 1 6 -6 0 -7 5 -9 10 -6 6 3
10 13 10 21 0 9 16 52 35 95 28 64 33 84 24 100 -8 15 -7 24 2 35 6 8 9 17 6
20 -2 3 -19 -19 -36 -49z"/>
</g>
</svg>
