<?xml version="1.0" standalone="no"?>
<!DOCTYPE svg PUBLIC "-//W3C//DTD SVG 20010904//EN"
 "http://www.w3.org/TR/2001/REC-SVG-20010904/DTD/svg10.dtd">
<svg version="1.0" xmlns="http://www.w3.org/2000/svg"
 width="218.000000pt" height="218.000000pt" viewBox="0 0 218.000000 218.000000"
 preserveAspectRatio="xMidYMid meet">
<metadata>
Created by potrace 1.16, written by Peter Selinger 2001-2019
</metadata>
<g transform="translate(0.000000,218.000000) scale(0.100000,-0.100000)"
fill="#000000" stroke="none">
<path d="M534 1856 c-39 -17 -44 -31 -44 -116 0 -52 4 -73 19 -91 l19 -24 339
-3 c332 -3 340 -2 366 18 25 20 27 26 27 104 0 128 24 121 -369 123 -259 2
-332 0 -357 -11z m666 -111 l0 -55 -322 2 -323 3 -3 39 c-6 70 -26 66 328 66
l320 0 0 -55z"/>
<path d="M544 1527 c-44 -38 -34 -116 18 -143 96 -50 183 72 102 144 -34 29
-85 29 -120 -1z"/>
<path d="M824 1535 c-34 -23 -49 -69 -34 -105 13 -31 54 -60 85 -60 30 0 72
29 84 59 34 80 -64 157 -135 106z"/>
<path d="M1087 1530 c-52 -41 -40 -124 22 -150 56 -23 120 13 122 68 2 46 -1
56 -27 80 -32 28 -83 29 -117 2z"/>
<path d="M1557 1424 c-4 -4 -7 -21 -7 -38 0 -26 -7 -35 -38 -51 -25 -14 -45
-35 -61 -68 -23 -47 -23 -48 -6 -93 24 -62 48 -75 160 -84 70 -5 100 -11 115
-25 49 -44 -5 -115 -86 -115 -56 0 -79 12 -99 50 -27 52 -75 33 -61 -24 10
-41 39 -67 96 -86 39 -13 56 -24 58 -39 9 -54 62 -52 62 3 0 31 5 38 41 56 55
29 87 95 70 150 -19 65 -47 82 -157 92 -53 4 -104 13 -114 18 -49 26 -25 93
44 119 53 20 107 2 135 -44 23 -39 32 -42 55 -20 38 39 -46 135 -118 135 -20
0 -27 7 -34 33 -8 31 -38 48 -55 31z"/>
<path d="M557 1319 c-47 -28 -51 -115 -7 -151 32 -26 83 -23 117 6 60 52 20
156 -60 156 -18 0 -40 -5 -50 -11z"/>
<path d="M827 1319 c-28 -16 -49 -67 -42 -100 20 -90 160 -90 180 0 7 34 -15
85 -44 101 -25 13 -71 12 -94 -1z"/>
<path d="M1083 1296 l-28 -24 0 -147 0 -147 28 -24 c36 -31 87 -32 122 -1 26
22 26 23 26 172 0 149 0 150 -26 173 -35 30 -86 29 -122 -2z"/>
<path d="M558 1095 c-40 -23 -53 -70 -31 -117 25 -53 93 -65 140 -24 35 30 39
95 7 126 -27 27 -82 34 -116 15z"/>
<path d="M827 1099 c-46 -27 -56 -101 -20 -141 15 -17 13 -18 -30 -18 -26 0
-47 -4 -47 -10 0 -6 59 -10 158 -10 113 0 177 -5 229 -17 64 -15 97 -14 81 2
-4 5 -231 35 -262 35 -5 0 -2 8 7 18 67 74 -28 192 -116 141z"/>
</g>
</svg>
