<?xml version="1.0" standalone="no"?>
<!DOCTYPE svg PUBLIC "-//W3C//DTD SVG 20010904//EN"
 "http://www.w3.org/TR/2001/REC-SVG-20010904/DTD/svg10.dtd">
<svg version="1.0" xmlns="http://www.w3.org/2000/svg"
 width="388.000000pt" height="382.000000pt" viewBox="0 0 388.000000 382.000000"
 preserveAspectRatio="xMidYMid meet">
<metadata>
Created by potrace 1.16, written by Peter Selinger 2001-2019
</metadata>
<g transform="translate(0.000000,382.000000) scale(0.100000,-0.100000)"
fill="#000000" stroke="none">
<path d="M956 3793 c-4 -4 -26 -8 -49 -9 -46 -2 -97 -19 -97 -32 0 -5 -16 -16
-35 -25 -19 -9 -35 -21 -35 -26 0 -6 -9 -18 -19 -28 -11 -10 -29 -42 -40 -71
-21 -53 -21 -55 -21 -1687 l0 -1634 21 -58 c12 -32 30 -68 40 -81 26 -34 99
-87 138 -100 25 -9 312 -12 1096 -12 l1062 0 62 31 c43 22 71 44 91 73 16 22
35 48 42 57 8 8 12 21 10 27 -2 7 1 12 7 12 8 0 11 441 11 1499 l0 1500 -273
274 c-150 150 -282 279 -294 285 -25 14 -1704 18 -1717 5z m1654 -261 c0 -185
10 -223 74 -288 74 -75 116 -88 294 -92 l152 -4 1 -1421 c1 -782 0 -1426 -1
-1432 -2 -5 -5 -22 -8 -38 -2 -15 -9 -27 -14 -27 -5 0 -7 -4 -4 -9 10 -15 -67
-69 -115 -81 -31 -8 -347 -10 -1069 -8 -1130 3 -1048 -2 -1105 66 -15 18 -31
49 -36 70 -5 20 -9 763 -9 1650 0 1597 0 1614 20 1660 22 51 71 92 111 92 13
0 31 5 39 10 9 6 330 10 843 9 l827 0 0 -157z m291 -117 l164 -161 -95 4 c-93
3 -170 21 -200 45 -33 27 -44 64 -51 172 -3 61 -10 121 -14 135 -6 23 -5 22
13 -5 11 -16 93 -102 183 -190z"/>
<path d="M1043 3432 c-27 -17 -32 -70 -33 -329 0 -148 3 -287 6 -309 5 -37 10
-42 44 -53 24 -7 134 -11 302 -11 259 0 321 6 340 34 4 6 8 115 8 241 l0 230
60 65 c33 35 60 71 60 80 0 21 -41 60 -62 60 -9 0 -25 -11 -35 -23 l-18 -24
-18 24 -18 23 -312 0 c-172 0 -317 -4 -324 -8z m557 -125 c0 -16 -27 -50 -85
-108 -47 -46 -89 -85 -95 -87 -5 -2 -29 17 -55 42 -25 25 -52 46 -58 46 -20
-1 -57 -37 -57 -56 0 -10 33 -51 72 -91 96 -96 102 -96 204 6 l79 78 -3 -146
-3 -146 -87 -2 c-118 -3 -265 -3 -332 0 l-55 2 3 243 3 242 234 0 235 0 0 -23z"/>
<path d="M1978 3426 c-21 -15 -24 -66 -6 -84 18 -18 457 -16 481 2 23 18 22
57 -2 78 -17 14 -50 17 -238 17 -168 1 -222 -2 -235 -13z"/>
<path d="M1976 3184 c-9 -8 -16 -26 -16 -39 0 -47 22 -55 145 -55 82 0 115 4
118 13 3 10 9 10 26 0 12 -8 55 -13 104 -13 91 0 117 13 117 60 0 46 -19 49
-257 50 -188 0 -224 -2 -237 -16z"/>
<path d="M1978 2956 c-23 -17 -23 -69 -1 -87 24 -21 848 -20 886 0 34 18 36
56 5 81 -22 18 -49 19 -448 19 -340 1 -428 -2 -442 -13z"/>
<path d="M1038 2481 l-23 -19 0 -322 c0 -307 1 -322 19 -336 16 -11 78 -14
331 -14 289 0 313 1 328 18 15 16 17 49 17 253 l0 234 60 63 c33 34 60 71 60
81 0 43 -63 63 -101 32 -23 -18 -23 -18 -34 3 -10 21 -15 21 -322 23 -292 2
-313 1 -335 -16z m562 -116 c0 -12 -32 -53 -80 -100 -44 -44 -80 -84 -80 -90
0 -5 -4 -16 -9 -24 -7 -11 -16 -6 -42 22 -19 20 -42 48 -52 62 -10 14 -25 25
-34 25 -24 0 -53 -30 -53 -54 0 -26 147 -176 173 -176 10 0 49 30 85 66 37 36
73 70 80 76 9 8 12 -19 12 -131 l0 -141 -237 0 -238 0 3 242 3 243 234 0 c230
0 235 0 235 -20z"/>
<path d="M1976 2478 c-9 -12 -16 -32 -16 -44 0 -49 5 -49 449 -49 229 0 428 3
443 8 36 10 43 64 11 90 -19 16 -56 17 -447 17 l-425 0 -15 -22z"/>
<path d="M1976 2244 c-23 -22 -20 -71 3 -84 13 -6 172 -10 449 -10 405 0 430
1 446 19 13 15 15 23 6 47 -6 16 -17 32 -23 36 -7 4 -204 8 -439 8 -375 0
-428 -2 -442 -16z"/>
<path d="M2000 2021 c0 -5 -9 -11 -20 -14 -14 -4 -20 -14 -20 -35 0 -53 13
-56 227 -54 108 1 199 4 201 7 8 8 42 6 42 -2 0 -5 97 -7 215 -6 228 2 237 4
242 50 2 13 -7 30 -23 42 -25 19 -40 20 -445 21 -243 0 -419 -3 -419 -9z"/>
<path d="M1073 1548 c6 -3 -2 -8 -18 -10 -25 -3 -30 -9 -38 -43 -4 -22 -6
-168 -5 -323 l3 -284 24 -19 c22 -18 43 -19 331 -19 285 0 308 1 323 18 15 16
17 49 17 253 l0 233 62 63 c57 58 61 65 52 90 -8 24 -16 28 -52 31 -23 2 -42
-1 -42 -6 0 -20 -28 -19 -51 1 -23 22 -31 22 -321 22 -163 0 -291 -3 -285 -7z
m527 -128 c0 -18 -25 -49 -91 -114 l-92 -90 -44 47 c-33 35 -52 47 -73 47 -30
0 -50 -22 -50 -55 0 -25 146 -165 171 -165 13 0 52 30 100 77 l79 76 0 -141 0
-142 -237 0 -238 0 3 242 3 243 234 0 235 0 0 -25z"/>
<path d="M2006 1548 c2 -4 -6 -8 -18 -10 -30 -4 -37 -52 -13 -78 16 -18 40
-19 444 -19 390 -1 428 1 447 17 18 14 20 22 12 50 -5 17 -15 32 -23 32 -8 0
-15 3 -15 8 0 4 -189 7 -419 7 -231 0 -417 -3 -415 -7z"/>
<path d="M1990 1310 c0 -5 -7 -10 -15 -10 -20 0 -20 -54 1 -74 14 -14 68 -16
448 -16 335 0 436 3 444 13 20 24 18 61 -5 80 -19 16 -56 17 -447 17 -277 0
-426 -3 -426 -10z"/>
<path d="M1992 1075 c-29 -13 -38 -49 -20 -77 13 -19 23 -21 97 -20 46 0 85 3
89 6 9 10 50 7 57 -4 4 -7 113 -10 318 -10 276 1 314 4 332 18 20 17 34 79 15
67 -6 -3 -10 -1 -10 4 0 6 -7 11 -15 11 -8 0 -15 3 -15 8 0 11 -821 9 -848 -3z"/>
<path d="M1036 481 c-23 -37 -25 -62 -6 -81 19 -19 34 -20 325 -20 197 0 305
4 305 10 0 13 37 13 45 0 3 -6 51 -10 107 -10 120 0 142 11 127 63 -5 17 -14
34 -21 39 -17 10 -875 10 -882 -1z"/>
<path d="M2092 470 c-28 -26 -28 -41 1 -68 23 -22 27 -22 389 -22 342 0 366 1
386 19 27 23 28 45 2 71 -19 19 -33 20 -388 20 -357 0 -369 -1 -390 -20z"/>
</g>
</svg>
