<?xml version="1.0" standalone="no"?>
<!DOCTYPE svg PUBLIC "-//W3C//DTD SVG 20010904//EN"
 "http://www.w3.org/TR/2001/REC-SVG-20010904/DTD/svg10.dtd">
<svg version="1.0" xmlns="http://www.w3.org/2000/svg"
 width="490.000000pt" height="499.000000pt" viewBox="0 0 490.000000 499.000000"
 preserveAspectRatio="xMidYMid meet">

<g transform="translate(0.000000,499.000000) scale(0.100000,-0.100000)"
fill="#000000" stroke="none">
<path d="M1493 4745 c-116 -32 -243 -116 -353 -233 -114 -123 -180 -244 -201
-372 -13 -80 -11 -251 5 -364 14 -96 14 -100 -6 -127 -41 -56 -18 -286 39
-389 14 -25 34 -80 44 -124 26 -106 71 -215 127 -309 26 -42 54 -91 63 -107
60 -110 248 -258 384 -302 73 -24 196 -25 278 -3 222 59 445 278 570 561 25
56 52 135 61 175 10 40 26 84 36 99 52 72 86 305 56 379 -15 39 -15 47 1 114
22 90 24 314 4 407 -44 211 -202 382 -436 473 -305 119 -531 160 -672 122z"/>
<path d="M1201 2582 c-39 -73 -320 -216 -601 -307 -88 -28 -184 -83 -248 -141
-49 -44 -69 -73 -110 -156 -102 -211 -184 -555 -227 -955 -23 -207 -18 -332
15 -398 22 -43 34 -54 90 -82 138 -67 565 -191 750 -217 19 -3 46 -8 60 -10
76 -15 385 -57 512 -71 306 -32 610 -13 1123 71 111 18 202 37 209 44 12 12
-62 108 -127 163 -77 65 -207 146 -342 214 -175 87 -258 118 -474 178 -107 30
-196 57 -198 59 -2 2 61 136 140 297 154 312 431 885 500 1032 22 48 45 87 50
87 5 0 81 -45 168 -101 240 -152 447 -311 647 -497 52 -48 97 -88 100 -89 9
-3 29 14 65 54 l28 31 -45 111 c-56 137 -79 174 -148 237 -81 74 -201 132
-491 239 -161 60 -238 101 -307 163 l-58 52 -7 -87 c-25 -306 -160 -483 -398
-524 -325 -54 -586 167 -651 551 -11 68 -14 73 -25 52z"/>
<path d="M4788 2581 c-280 -110 -629 -362 -969 -701 -190 -189 -244 -248 -467
-508 l-106 -124 -24 29 c-153 181 -253 284 -417 429 -120 106 -331 264 -353
264 -4 0 -42 -69 -82 -152 -41 -84 -121 -250 -179 -368 -58 -118 -105 -219
-105 -225 -1 -5 17 -16 39 -24 284 -103 617 -290 760 -428 33 -32 93 -101 132
-153 40 -52 76 -99 81 -105 4 -5 41 -56 82 -112 41 -57 77 -103 81 -103 3 0
16 22 27 49 77 177 258 556 330 688 27 50 52 102 56 116 3 14 20 47 38 73 18
27 62 99 98 159 105 178 311 480 423 620 186 233 414 454 558 543 38 23 68 52
53 52 -5 -1 -30 -9 -56 -19z"/>
</g>
</svg>
