<?xml version="1.0" standalone="no"?>
<!DOCTYPE svg PUBLIC "-//W3C//DTD SVG 20010904//EN"
 "http://www.w3.org/TR/2001/REC-SVG-20010904/DTD/svg10.dtd">
<svg version="1.0" xmlns="http://www.w3.org/2000/svg"
 width="514.000000pt" height="519.000000pt" viewBox="0 0 514.000000 519.000000"
 preserveAspectRatio="xMidYMid meet">

<g transform="translate(0.000000,519.000000) scale(0.100000,-0.100000)"
fill="#000000" stroke="none">
<path d="M2753 5159 c-76 -37 -169 -133 -180 -188 -5 -20 -8 -304 -8 -631 l0
-595 33 -52 c51 -79 166 -143 257 -143 20 0 39 -8 52 -22 18 -21 133 -298 148
-361 4 -15 13 -27 19 -27 10 0 124 91 206 163 52 47 241 194 279 218 l45 29
630 0 c608 0 633 1 684 20 77 29 128 66 161 117 63 94 62 84 59 699 -3 557 -3
559 -26 605 -35 71 -89 127 -156 162 l-61 32 -1040 2 -1040 2 -62 -30z m1685
-369 c35 -33 29 -77 -14 -114 -20 -17 -97 -94 -172 -170 -75 -77 -178 -180
-227 -230 -50 -50 -134 -137 -188 -193 -107 -112 -138 -130 -206 -114 -47 10
-86 42 -275 226 -71 69 -133 125 -138 125 -15 0 -9 78 8 94 16 17 61 21 80 8
21 -13 168 -146 255 -229 47 -46 90 -83 96 -83 6 0 100 91 209 203 109 111
265 268 347 350 160 158 179 169 225 127z"/>
<path d="M1455 4930 c-261 -40 -491 -214 -588 -446 -42 -100 -57 -174 -57
-285 1 -295 148 -523 427 -663 93 -46 197 -69 318 -70 161 -1 297 37 419 119
37 25 70 45 75 45 14 0 109 109 148 169 146 227 160 484 42 727 -134 274 -477
451 -784 404z"/>
<path d="M723 3280 c-107 -15 -184 -38 -283 -86 -83 -41 -108 -60 -201 -153
-113 -113 -148 -164 -186 -269 -54 -149 -53 -117 -53 -1308 l0 -1105 24 -47
c33 -63 111 -136 162 -150 47 -14 1474 -18 1474 -4 0 4 5 34 10 67 5 33 12 89
15 125 3 36 15 129 25 207 11 79 20 159 20 178 l0 35 -447 0 c-272 0 -466 5
-493 11 -25 5 -71 27 -102 47 -44 29 -64 49 -85 92 l-28 55 -3 459 c-2 326 0
468 8 487 15 35 60 55 89 40 52 -28 51 -22 51 -506 0 -434 1 -451 20 -483 38
-62 40 -62 552 -60 l463 3 8 65 c4 36 16 135 27 220 11 85 29 232 40 325 92
745 90 733 118 756 25 19 42 19 715 19 379 -1 692 1 695 5 5 5 -55 161 -103
270 -13 28 -50 118 -84 201 -84 209 -122 273 -209 356 -78 73 -121 97 -242
131 -74 21 -89 21 -1005 23 -511 1 -958 -2 -992 -6z"/>
<path d="M2056 2138 c-4 -22 -22 -154 -65 -498 -11 -85 -29 -236 -41 -335 -11
-99 -27 -225 -35 -280 -8 -55 -17 -127 -20 -160 -6 -61 -28 -233 -65 -515 -11
-85 -20 -165 -20 -177 l0 -23 739 0 c420 0 742 4 745 9 5 7 16 137 20 236 l1
30 -65 3 c-37 2 -93 -4 -132 -13 -45 -12 -96 -16 -155 -13 -76 3 -97 8 -152
36 -116 60 -159 99 -197 179 -78 162 -43 328 96 456 47 44 76 61 147 86 48 18
108 37 133 43 80 19 415 130 426 142 6 6 30 128 54 271 23 143 50 309 61 370
10 60 19 124 19 142 l0 33 -745 0 -745 0 -4 -22z m341 -254 c59 -9 112 -19
116 -24 5 -4 4 -39 -2 -76 -12 -79 -34 -103 -92 -104 -28 0 -42 7 -68 36 -25
27 -36 33 -46 24 -21 -17 -118 -30 -133 -17 -20 16 -1 27 59 34 30 3 62 10 72
15 17 9 17 11 4 26 -8 9 -17 28 -19 42 -2 20 -11 26 -48 33 -25 5 -49 13 -54
18 -15 14 91 11 211 -7z m-89 -265 c188 -28 170 -16 157 -101 -13 -91 -38
-108 -29 -19 7 58 6 60 -18 66 -14 4 -39 5 -54 3 -26 -3 -30 -8 -38 -55 -5
-32 -14 -53 -22 -53 -20 0 -23 12 -14 60 11 57 0 69 -64 72 -54 3 -57 0 -71
-84 -6 -41 -35 -54 -35 -17 0 54 24 149 37 149 8 0 76 -9 151 -21z m-174 -274
c-5 -42 -3 -60 10 -80 18 -28 44 -33 52 -10 4 8 14 15 23 15 10 0 29 17 42 37
13 21 36 44 50 52 30 17 83 9 118 -18 24 -18 24 -21 12 -74 -6 -30 -18 -58
-26 -61 -21 -8 -25 5 -15 49 5 24 5 46 -1 57 -20 37 -127 -3 -129 -48 0 -20
-59 -54 -93 -54 -57 0 -101 70 -83 130 25 79 49 82 40 5z m243 -236 c13 -5 23
-13 23 -19 0 -14 -63 -12 -155 5 -97 19 -137 14 -160 -22 -22 -33 -14 -91 17
-114 13 -11 69 -24 140 -35 74 -11 119 -22 122 -30 3 -7 1 -16 -4 -19 -15 -9
-238 32 -265 49 -86 56 -58 207 40 218 35 4 208 -20 242 -33z m-202 -289 c158
-23 175 -27 175 -41 0 -20 -31 -20 -158 1 -73 12 -136 19 -141 15 -6 -3 -13
-27 -16 -53 -10 -68 -15 -82 -31 -82 -17 0 -17 5 -4 90 12 76 17 90 27 90 4 0
71 -9 148 -20z m145 -210 c0 -19 -32 -195 -37 -203 -11 -18 -20 6 -16 46 l5
42 -98 14 c-55 7 -103 17 -108 22 -6 5 -22 9 -37 9 -38 0 -59 10 -59 26 0 18
24 18 130 0 47 -8 108 -16 135 -18 47 -3 50 -1 53 22 2 14 5 31 7 38 5 14 25
16 25 2z"/>
<path d="M2373 1838 c-6 -7 -13 -28 -16 -46 -6 -27 -2 -38 18 -58 45 -45 100
-20 111 52 7 46 7 46 -67 58 -24 4 -40 2 -46 -6z"/>
<path d="M3596 1498 c-17 -155 -37 -242 -62 -265 -14 -13 -35 -23 -48 -23 -13
0 -124 -34 -247 -76 -123 -41 -259 -86 -301 -100 -89 -28 -154 -73 -184 -128
-19 -34 -21 -49 -17 -130 8 -128 26 -157 137 -215 75 -40 102 -39 289 5 465
108 472 111 518 161 73 77 83 144 49 310 -11 54 -29 141 -40 193 -11 52 -29
142 -41 200 -26 129 -26 130 -37 130 -5 0 -12 -28 -16 -62z"/>
</g>
</svg>
