<?xml version="1.0" standalone="no"?>
<!DOCTYPE svg PUBLIC "-//W3C//DTD SVG 20010904//EN"
 "http://www.w3.org/TR/2001/REC-SVG-20010904/DTD/svg10.dtd">
<svg version="1.0" xmlns="http://www.w3.org/2000/svg"
 width="391.000000pt" height="410.000000pt" viewBox="0 0 391.000000 410.000000"
 preserveAspectRatio="xMidYMid meet">

<g transform="translate(0.000000,410.000000) scale(0.100000,-0.100000)"
fill="#000000" stroke="none">
<path d="M2731 4084 c-145 -39 -302 -170 -367 -307 -34 -73 -41 -100 -93 -387
-11 -58 -29 -136 -41 -175 -36 -118 -36 -111 5 -125 58 -19 170 -9 237 22 l57
27 43 -43 c129 -129 211 -172 309 -163 72 6 125 38 233 139 l69 64 61 -25 c72
-29 190 -40 236 -21 17 7 30 15 30 19 0 3 -14 53 -30 111 -17 58 -35 132 -40
165 -23 157 -44 265 -62 320 -21 64 -67 155 -78 155 -4 0 -12 11 -18 24 -14
32 -133 127 -202 161 -110 55 -236 70 -349 39z"/>
<path d="M1835 2978 c-11 -6 -24 -16 -30 -20 -20 -17 -164 -124 -259 -193 -54
-38 -127 -93 -164 -120 -55 -41 -259 -192 -372 -275 -79 -58 -160 -118 -283
-209 -76 -56 -146 -105 -155 -109 -9 -3 -43 -26 -74 -49 -59 -45 -80 -88 -64
-130 13 -34 351 -533 360 -530 4 2 20 23 33 47 73 131 130 214 162 236 60 41
148 29 194 -26 46 -55 48 -109 7 -209 -29 -71 -36 -101 -24 -101 3 0 40 26 82
57 42 31 113 83 157 115 44 33 121 89 171 126 49 37 136 101 193 142 57 41
135 101 174 132 104 83 247 188 255 188 18 0 188 134 195 154 16 41 0 91 -54
169 -30 43 -79 115 -109 161 -30 46 -106 159 -167 251 -62 92 -113 171 -113
176 0 26 -79 38 -115 17z m-491 -576 c38 10 50 9 85 -7 22 -10 48 -29 57 -42
15 -24 15 -26 -12 -54 -27 -28 -64 -39 -64 -20 0 11 -39 25 -47 17 -6 -6 51
-98 71 -115 8 -7 24 -6 51 4 81 27 161 -14 200 -104 22 -49 18 -95 -11 -157
-19 -41 -23 -59 -15 -67 17 -17 13 -42 -10 -63 -21 -19 -21 -19 -44 10 -22 27
-26 29 -50 18 -45 -21 -106 -14 -149 16 -60 42 -64 54 -32 97 27 34 29 35 49
20 37 -26 86 -49 93 -42 4 3 -12 36 -36 72 l-42 65 -87 0 c-74 0 -91 3 -109
20 -73 69 -86 165 -31 242 11 14 19 34 19 44 0 29 30 55 51 44 12 -7 33 -6 63
2z"/>
<path d="M1275 2228 c-7 -26 8 -66 29 -80 6 -4 21 -8 33 -8 l22 0 -19 33 c-11
17 -29 43 -39 57 l-19 25 -7 -27z"/>
<path d="M1500 2075 c0 -2 19 -29 42 -60 29 -39 44 -52 50 -43 25 40 -17 108
-67 108 -14 0 -25 -2 -25 -5z"/>
<path d="M2450 2872 c-97 -36 -197 -92 -238 -135 l-33 -34 115 -169 c149 -217
165 -248 161 -302 -4 -53 -24 -85 -75 -120 -35 -25 -39 -33 -50 -96 -7 -38
-10 -110 -8 -160 4 -75 11 -103 36 -159 58 -126 60 -156 16 -254 -19 -43 -18
-58 10 -90 l24 -28 452 0 452 0 19 24 c24 30 24 64 -1 120 -28 61 -25 87 22
203 l43 103 0 135 c0 74 -3 158 -7 185 l-8 50 26 -55 c30 -63 50 -120 70 -198
19 -73 55 -231 60 -263 2 -14 8 -47 14 -72 5 -25 12 -66 15 -92 9 -73 28 -118
55 -133 17 -9 58 -12 131 -10 145 4 153 12 145 123 -15 189 -98 626 -168 875
-36 130 -122 309 -178 373 -57 64 -140 119 -247 163 -104 42 -151 47 -189 18
-56 -42 -54 -35 -166 -409 -16 -55 -32 -111 -35 -125 -10 -59 -64 -92 -90 -57
-8 11 -65 193 -69 225 -2 7 -9 34 -18 60 -9 26 -28 85 -42 132 -34 114 -53
151 -89 171 -51 30 -76 30 -155 1z"/>
<path d="M2150 1954 c-69 -51 -136 -101 -149 -111 -14 -10 -38 -30 -53 -45
-16 -16 -32 -28 -36 -28 -35 -2 -53 -53 -67 -190 -4 -36 -11 -87 -16 -114 -13
-72 -11 -94 11 -116 18 -18 33 -20 138 -20 101 0 121 3 134 18 8 9 23 58 32
107 10 50 24 115 31 145 8 30 16 66 19 80 7 41 72 261 94 318 18 47 18 52 4
51 -10 0 -73 -43 -142 -95z"/>
<path d="M504 1579 c-24 -7 -38 -22 -62 -66 -40 -77 -137 -376 -221 -683 -78
-288 -93 -351 -87 -374 3 -14 28 -38 58 -58 160 -105 270 -168 291 -168 37 0
49 17 252 340 54 85 114 180 134 211 20 30 63 122 95 205 33 82 90 227 127
322 38 96 69 183 69 194 0 11 -14 33 -30 50 -27 27 -36 30 -71 25 -22 -3 -47
-14 -55 -24 -7 -10 -73 -126 -145 -258 -72 -132 -136 -245 -141 -251 -34 -43
-91 -7 -114 72 -15 54 -15 56 8 102 19 39 31 50 73 67 28 10 52 20 54 22 7 5
-184 283 -194 282 -5 -1 -24 -5 -41 -10z"/>
<path d="M1133 1193 c-28 -26 -83 -149 -83 -189 0 -20 98 -19 128 2 52 36 68
123 32 182 -24 39 -37 40 -77 5z"/>
<path d="M46 349 c-35 -31 -46 -97 -23 -133 25 -38 314 -208 363 -214 51 -5
79 18 90 74 12 67 1 80 -170 187 -179 112 -216 124 -260 86z"/>
</g>
</svg>
